<svg width="342" height="140" viewBox="0 0 342 140" fill="none" xmlns="http://www.w3.org/2000/svg">
<path d="M326 0H16C7.16344 0 0 7.16344 0 16V124C0 132.837 7.16344 140 16 140H326C334.837 140 342 132.837 342 124V16C342 7.16344 334.837 0 326 0Z" fill="#FFEBEB"/>
<g filter="url(#filter0_f_1287_2093)">
<path d="M195 151C259.065 151 311 99.065 311 35C311 -29.065 259.065 -81 195 -81C130.935 -81 79 -29.065 79 35C79 99.065 130.935 151 195 151Z" fill="#FF6B6C"/>
</g>
<g filter="url(#filter1_f_1287_2093)">
<path d="M37.5 91C84.7203 91 123 52.7203 123 5.5C123 -41.7203 84.7203 -80 37.5 -80C-9.72034 -80 -48 -41.7203 -48 5.5C-48 52.7203 -9.72034 91 37.5 91Z" fill="#FFC145"/>
</g>
<mask id="mask0_1287_2093" style="mask-type:luminance" maskUnits="userSpaceOnUse" x="178" y="24" width="206" height="206">
<path d="M340.276 24L178 67.4816L221.482 229.757L383.757 186.276L340.276 24Z" fill="white"/>
</mask>
<g mask="url(#mask0_1287_2093)">
<path fill-rule="evenodd" clip-rule="evenodd" d="M216.447 78.107C217.573 73.827 220.907 70.479 225.182 69.333L300.341 49.1944C304.616 48.0489 309.177 49.2819 312.292 52.4254L344.914 85.339C350.893 91.372 348.125 101.613 339.92 103.811L358.038 171.426C359.038 175.161 356.822 178.999 353.088 179.999C349.354 181 345.515 178.784 344.515 175.05L326.397 107.435L299.351 114.682L316.088 177.145C317.851 183.724 313.947 190.487 307.367 192.25L250.056 207.607C243.476 209.37 236.713 205.465 234.951 198.886L218.214 136.423C210.009 138.621 202.491 131.136 204.652 122.922L216.447 78.107ZM219.48 121.59L331.407 91.599L303.03 62.9677L229.74 82.606L219.48 121.59ZM285.828 118.305L231.736 132.799L240.795 166.607L294.887 152.113L285.828 118.305ZM298.51 165.636L244.419 180.13L248.042 193.653L302.134 179.159L298.51 165.636Z" fill="#FFFFFB" fill-opacity="0.2"/>
</g>
<defs>
<filter id="filter0_f_1287_2093" x="-11" y="-171" width="412" height="412" filterUnits="userSpaceOnUse" color-interpolation-filters="sRGB">
<feFlood flood-opacity="0" result="BackgroundImageFix"/>
<feBlend mode="normal" in="SourceGraphic" in2="BackgroundImageFix" result="shape"/>
<feGaussianBlur stdDeviation="45" result="effect1_foregroundBlur_1287_2093"/>
</filter>
<filter id="filter1_f_1287_2093" x="-148" y="-180" width="371" height="371" filterUnits="userSpaceOnUse" color-interpolation-filters="sRGB">
<feFlood flood-opacity="0" result="BackgroundImageFix"/>
<feBlend mode="normal" in="SourceGraphic" in2="BackgroundImageFix" result="shape"/>
<feGaussianBlur stdDeviation="50" result="effect1_foregroundBlur_1287_2093"/>
</filter>
</defs>
</svg>
