<svg width="40" height="40" viewBox="0 0 40 40" fill="none" xmlns="http://www.w3.org/2000/svg">
<path d="M3.33331 20.8338C3.33331 20.6128 3.42111 20.4008 3.57739 20.2445C3.73367 20.0882 3.94563 20.0005 4.16665 20.0005H12.5C12.721 20.0005 12.933 20.0882 13.0892 20.2445C13.2455 20.4008 13.3333 20.6128 13.3333 20.8338V30.0005C13.3333 31.3265 12.8065 32.5983 11.8688 33.536C10.9312 34.4737 9.6594 35.0005 8.33331 35.0005C7.00723 35.0005 5.73546 34.4737 4.79778 33.536C3.8601 32.5983 3.33331 31.3265 3.33331 30.0005V20.8338ZM4.99998 17.5005H11.6666V10.0005C11.6668 9.71633 11.5943 9.43688 11.456 9.18866C11.3178 8.94044 11.1183 8.73169 10.8767 8.58223C10.6351 8.43277 10.3592 8.34757 10.0754 8.33471C9.79155 8.32186 9.50914 8.38178 9.25498 8.50878L5.92165 10.1755C5.64459 10.3139 5.41159 10.5268 5.2488 10.7903C5.086 11.0538 4.99984 11.3574 4.99998 11.6671V17.5005ZM18.3333 17.5005C18.3333 15.0693 19.2991 12.7377 21.0182 11.0186C22.7372 9.29956 25.0688 8.33378 27.5 8.33378C29.9311 8.33378 32.2627 9.29956 33.9818 11.0186C35.7009 12.7377 36.6666 15.0693 36.6666 17.5005C36.6666 19.9316 35.7009 22.2632 33.9818 23.9823C32.2627 25.7013 29.9311 26.6671 27.5 26.6671C25.0688 26.6671 22.7372 25.7013 21.0182 23.9823C19.2991 22.2632 18.3333 19.9316 18.3333 17.5005ZM26.25 29.5171C27.081 29.6055 27.919 29.6055 28.75 29.5171V32.5005H32.5C32.8315 32.5005 33.1494 32.6321 33.3839 32.8666C33.6183 33.101 33.75 33.4189 33.75 33.7505C33.75 34.082 33.6183 34.3999 33.3839 34.6343C33.1494 34.8688 32.8315 35.0005 32.5 35.0005H22.5C22.1685 35.0005 21.8505 34.8688 21.6161 34.6343C21.3817 34.3999 21.25 34.082 21.25 33.7505C21.25 33.4189 21.3817 33.101 21.6161 32.8666C21.8505 32.6321 22.1685 32.5005 22.5 32.5005H26.25V29.5171Z" fill="#292F36"/>
</svg>
