<svg width="24" height="24" viewBox="0 0 24 24" fill="none" xmlns="http://www.w3.org/2000/svg">
<rect width="24" height="24" fill="#FF6B6C"/>
<path d="M18.4714 5.52902C18.7318 5.78937 18.7318 6.21148 18.4714 6.47183L6.4714 18.4718C6.21105 18.7322 5.78894 18.7322 5.52859 18.4718C5.26825 18.2115 5.26824 17.7894 5.52859 17.529L17.5286 5.52902C17.7889 5.26867 18.2111 5.26867 18.4714 5.52902Z" fill="#FFEBEB"/>
<path fill-rule="evenodd" clip-rule="evenodd" d="M5.33333 8.33376C5.33333 6.67691 6.67648 5.33376 8.33333 5.33376C9.99019 5.33376 11.3333 6.67691 11.3333 8.33376C11.3333 9.99061 9.99019 11.3338 8.33333 11.3338C6.67648 11.3338 5.33333 9.99061 5.33333 8.33376ZM8.33333 6.66709C7.41286 6.66709 6.66667 7.41329 6.66667 8.33376C6.66667 9.25423 7.41286 10.0004 8.33333 10.0004C9.25381 10.0004 10 9.25423 10 8.33376C10 7.41329 9.25381 6.66709 8.33333 6.66709Z" fill="#FFEBEB"/>
<path fill-rule="evenodd" clip-rule="evenodd" d="M12.6667 15.6671C12.6667 14.0102 14.0098 12.6671 15.6667 12.6671C17.3235 12.6671 18.6667 14.0102 18.6667 15.6671C18.6667 17.3239 17.3235 18.6671 15.6667 18.6671C14.0098 18.6671 12.6667 17.3239 12.6667 15.6671ZM15.6667 14.0004C14.7462 14.0004 14 14.7466 14 15.6671C14 16.5876 14.7462 17.3338 15.6667 17.3338C16.5871 17.3338 17.3333 16.5876 17.3333 15.6671C17.3333 14.7466 16.5871 14.0004 15.6667 14.0004Z" fill="#FFEBEB"/>
</svg>
