<svg width="24" height="24" viewBox="0 0 24 24" fill="none" xmlns="http://www.w3.org/2000/svg">
<path fill-rule="evenodd" clip-rule="evenodd" d="M4.84385 3.00772C5.19994 2.38457 5.86262 2 6.58034 2H17.4197C18.1374 2 18.8001 2.38457 19.1562 3.00772L22.3721 8.63562C22.9741 9.68915 22.2134 11 21 11V21C21 21.5523 20.5523 22 20 22C19.4477 22 19 21.5523 19 21V11H15V20C15 21.1046 14.1046 22 13 22H5.00002C3.89545 22 3.00002 21.1046 3.00002 20V11C1.78661 11 1.02589 9.68915 1.62791 8.63562L4.84385 3.00772ZM3.72319 9H20.2768L17.4197 4H6.58034L3.72319 9ZM13 11H5.00002V16H13V11ZM13 18H5.00002V20H13V18Z" fill="#5B5F97"/>
<path d="M5.00002 16H13V18H5.00002V16Z" fill="#FF6B6C"/>
</svg>
