<svg width="24" height="24" viewBox="0 0 24 24" fill="none" xmlns="http://www.w3.org/2000/svg">
<g id="home">
<g id="Icon">
<path fill-rule="evenodd" clip-rule="evenodd" d="M7.99998 14C7.99998 11.7908 9.79084 9.99997 12 9.99997C14.2091 9.99997 16 11.7908 16 14C16 16.2091 14.2091 18 12 18C9.79084 18 7.99998 16.2091 7.99998 14ZM12 12C10.8954 12 9.99998 12.8954 9.99998 14C9.99998 15.1045 10.8954 16 12 16C13.1046 16 14 15.1045 14 14C14 12.8954 13.1046 12 12 12Z" fill="#FF6B6C"/>
<path fill-rule="evenodd" clip-rule="evenodd" d="M11.2998 1.78269C11.7035 1.43951 12.2965 1.43951 12.7002 1.78269L22.6476 10.238C23.0684 10.5957 23.1196 11.2268 22.7619 11.6476C22.4042 12.0684 21.7731 12.1196 21.3523 11.7619L21 11.4624V19.9999C21 21.1045 20.1046 21.9999 19 21.9999H4.99998C3.89541 21.9999 2.99998 21.1045 2.99998 19.9999V11.4624L2.64763 11.7619C2.22682 12.1196 1.59573 12.0684 1.23804 11.6476C0.880355 11.2268 0.931526 10.5957 1.35233 10.238L11.2998 1.78269ZM4.99998 9.76238V19.9999H19V9.76238L12 3.81238L4.99998 9.76238Z" fill="#292F36"/>
</g>
</g>
</svg>
