<svg width="24" height="24" viewBox="0 0 24 24" fill="none" xmlns="http://www.w3.org/2000/svg">
<g id="dollar-circle">
<g id="Icon">
<path fill-rule="evenodd" clip-rule="evenodd" d="M12 5.5C12.5523 5.5 13 5.94771 13 6.5V7H15C15.5523 7 16 7.44771 16 8C16 8.55228 15.5523 9 15 9H13V11H15C15.5523 11 16 11.4477 16 12V16C16 16.5523 15.5523 17 15 17H13V17.5C13 18.0523 12.5523 18.5 12 18.5C11.4477 18.5 11 18.0523 11 17.5V17H9C8.44772 17 8 16.5523 8 16C8 15.4477 8.44772 15 9 15H11V13H9C8.44772 13 8 12.5523 8 12V8C8 7.44771 8.44772 7 9 7H11V6.5C11 5.94772 11.4477 5.5 12 5.5ZM11 9H10V11H11V9ZM13 13V15H14V13H13Z" fill="#FF6B6C"/>
<path fill-rule="evenodd" clip-rule="evenodd" d="M1 12C1 5.92487 5.92487 1 12 1C18.0751 1 23 5.92487 23 12C23 18.0751 18.0751 23 12 23C5.92487 23 1 18.0751 1 12ZM12 3C7.02944 3 3 7.02944 3 12C3 16.9706 7.02944 21 12 21C16.9706 21 21 16.9706 21 12C21 7.02944 16.9706 3 12 3Z" fill="#5B5F97"/>
</g>
</g>
</svg>
