<svg width="24" height="24" viewBox="0 0 24 24" fill="none" xmlns="http://www.w3.org/2000/svg">
<g id="information-circle">
<g id="Icon">
<path d="M11 7C11 6.44772 11.4527 6 12.005 6C12.5573 6 13.01 6.44772 13.01 7C13.01 7.55228 12.5573 8 12.005 8C11.4527 8 11 7.55228 11 7Z" fill="#FF6B6C"/>
<path d="M12 10C12.5523 10 13 10.4477 13 11V17C13 17.5523 12.5523 18 12 18C11.4477 18 11 17.5523 11 17V11C11 10.4477 11.4477 10 12 10Z" fill="#FF6B6C"/>
<path fill-rule="evenodd" clip-rule="evenodd" d="M1 12C1 5.92487 5.92487 1 12 1C18.0751 1 23 5.92487 23 12C23 18.0751 18.0751 23 12 23C5.92487 23 1 18.0751 1 12ZM12 3C7.02944 3 3 7.02944 3 12C3 16.9706 7.02944 21 12 21C16.9706 21 21 16.9706 21 12C21 7.02944 16.9706 3 12 3Z" fill="#5B5F97"/>
</g>
</g>
</svg>
