<svg width="148" height="36" viewBox="0 0 148 36" fill="none" xmlns="http://www.w3.org/2000/svg">
<path d="M0 5.77021V0.476596H27.4336V5.77021H16.806V35.3362H10.6276V5.77021H0Z" fill="#292F36"/>
<path d="M37.5857 20.017V35.3362H31.508V0.476596H37.4514V13.634H37.7536C38.358 12.1589 39.2926 10.9957 40.5574 10.1447C41.8333 9.28227 43.4563 8.85106 45.4262 8.85106C47.2171 8.85106 48.7785 9.2312 50.1104 9.99149C51.4424 10.7518 52.4721 11.8638 53.1996 13.3277C53.9384 14.7915 54.3077 16.5787 54.3077 18.6894V35.3362H48.23V19.6426C48.23 17.8837 47.7823 16.5163 46.8869 15.5404C46.0027 14.5532 44.7603 14.0596 43.1597 14.0596C42.0852 14.0596 41.1226 14.2979 40.2719 14.7745C39.4325 15.2397 38.7721 15.9149 38.2908 16.8C37.8207 17.6851 37.5857 18.7574 37.5857 20.017Z" fill="#292F36"/>
<path d="M70.974 35.8468C68.3885 35.8468 66.1555 35.3021 64.2751 34.2128C62.4059 33.1121 60.9677 31.5574 59.9603 29.5489C58.953 27.5291 58.4493 25.1518 58.4493 22.417C58.4493 19.7277 58.953 17.3674 59.9603 15.3362C60.9789 13.2936 62.4004 11.705 64.2248 10.5702C66.0492 9.42411 68.1926 8.85106 70.655 8.85106C72.2444 8.85106 73.7443 9.11206 75.1545 9.63404C76.576 10.1447 77.8296 10.939 78.9153 12.017C80.0122 13.095 80.8741 14.4681 81.5009 16.1362C82.1277 17.7929 82.4411 19.7674 82.4411 22.0596V23.9489H61.3035V19.7957H76.6152C76.604 18.6156 76.3522 17.566 75.8597 16.6468C75.3672 15.7163 74.6789 14.9844 73.7946 14.4511C72.9216 13.9177 71.903 13.6511 70.739 13.6511C69.4966 13.6511 68.4053 13.9574 67.4651 14.5702C66.5249 15.1716 65.7918 15.966 65.2657 16.9532C64.7508 17.9291 64.4878 19.0014 64.4766 20.1702V23.7957C64.4766 25.3163 64.7508 26.6213 65.2993 27.7106C65.8477 28.7887 66.6144 29.617 67.5994 30.1957C68.5844 30.7631 69.7372 31.0468 71.058 31.0468C71.9422 31.0468 72.7425 30.922 73.4588 30.6723C74.1752 30.4113 74.7964 30.0312 75.3224 29.5319C75.8485 29.0326 76.2459 28.4142 76.5145 27.6766L82.1892 28.3234C81.8311 29.844 81.1483 31.1716 80.141 32.3064C79.1448 33.4298 77.8688 34.3035 76.313 34.9277C74.7572 35.5404 72.9776 35.8468 70.974 35.8468Z" fill="#292F36"/>
<path d="M100.555 0.476596V35.3362H94.3266V6.62127H94.1252L86.0831 11.8298V6.04255L94.6289 0.476596H100.555Z" fill="#5B5F97"/>
<path d="M110.919 36C108.154 36 105.781 35.2908 103.8 33.8723C101.83 32.4426 100.313 30.383 99.2501 27.6936C98.198 24.9929 97.6719 21.7418 97.6719 17.9404C97.6831 14.139 98.2148 10.905 99.2669 8.2383C100.33 5.56028 101.847 3.51773 103.817 2.11064C105.798 0.703546 108.165 0 110.919 0C113.672 0 116.039 0.703546 118.02 2.11064C120.002 3.51773 121.518 5.56028 122.57 8.2383C123.634 10.9163 124.165 14.1504 124.165 17.9404C124.165 21.7532 123.634 25.0099 122.57 27.7106C121.518 30.4 120.002 32.4539 118.02 33.8723C116.051 35.2908 113.683 36 110.919 36ZM110.919 30.6723C113.068 30.6723 114.763 29.6 116.006 27.4553C117.259 25.2993 117.886 22.1277 117.886 17.9404C117.886 15.1716 117.601 12.8454 117.03 10.9617C116.459 9.07801 115.653 7.65957 114.612 6.70638C113.571 5.74184 112.34 5.25957 110.919 5.25957C108.781 5.25957 107.091 6.33759 105.848 8.49362C104.606 10.6383 103.979 13.7872 103.968 17.9404C103.957 20.7206 104.231 23.0582 104.791 24.9532C105.361 26.8482 106.167 28.278 107.208 29.2425C108.249 30.1957 109.486 30.6723 110.919 30.6723Z" fill="#FFC145"/>
<path d="M134.753 36C131.989 36 129.616 35.2908 127.635 33.8723C125.665 32.4426 124.148 30.383 123.085 27.6936C122.033 24.9929 121.507 21.7418 121.507 17.9404C121.518 14.139 122.049 10.905 123.102 8.2383C124.165 5.56028 125.682 3.51773 127.651 2.11064C129.633 0.703546 132 0 134.753 0C137.507 0 139.874 0.703546 141.855 2.11064C143.836 3.51773 145.353 5.56028 146.405 8.2383C147.468 10.9163 148 14.1504 148 17.9404C148 21.7532 147.468 25.0099 146.405 27.7106C145.353 30.4 143.836 32.4539 141.855 33.8723C139.885 35.2908 137.518 36 134.753 36ZM134.753 30.6723C136.902 30.6723 138.598 29.6 139.84 27.4553C141.094 25.2993 141.721 22.1277 141.721 17.9404C141.721 15.1716 141.435 12.8454 140.865 10.9617C140.294 9.07801 139.488 7.65957 138.447 6.70638C137.406 5.74184 136.175 5.25957 134.753 5.25957C132.615 5.25957 130.925 6.33759 129.683 8.49362C128.441 10.6383 127.814 13.7872 127.803 17.9404C127.791 20.7206 128.066 23.0582 128.625 24.9532C129.196 26.8482 130.002 28.278 131.043 29.2425C132.084 30.1957 133.321 30.6723 134.753 30.6723Z" fill="#FF6B6C"/>
</svg>
