<svg width="16" height="16" viewBox="0 0 16 16" fill="none" xmlns="http://www.w3.org/2000/svg">
<g clip-path="url(#clip0_1463_1670)">
<path fill-rule="evenodd" clip-rule="evenodd" d="M0.666672 6.66699C0.666672 3.35328 3.35296 0.666992 6.66667 0.666992C9.98038 0.666992 12.6667 3.35328 12.6667 6.66699C12.6667 8.08367 12.1757 9.38567 11.3546 10.4121L15.1381 14.1956C15.3984 14.4559 15.3984 14.878 15.1381 15.1384C14.8777 15.3987 14.4556 15.3987 14.1953 15.1384L10.4118 11.3549C9.38535 12.176 8.08335 12.667 6.66667 12.667C3.35296 12.667 0.666672 9.9807 0.666672 6.66699ZM6.66667 2.00033C4.08934 2.00033 2.00001 4.08966 2.00001 6.66699C2.00001 9.24432 4.08934 11.3337 6.66667 11.3337C9.244 11.3337 11.3333 9.24432 11.3333 6.66699C11.3333 4.08966 9.244 2.00033 6.66667 2.00033Z" fill="#ACA9BB"/>
</g>
<defs>
<clipPath id="clip0_1463_1670">
<rect width="16" height="16" fill="white"/>
</clipPath>
</defs>
</svg>
