<svg width="24" height="24" viewBox="0 0 24 24" fill="none" xmlns="http://www.w3.org/2000/svg">
<g id="award1">
<g id="Union">
<path d="M12.8 6.68149C12.8 6.0842 12.3158 5.60001 11.7185 5.60001C11.495 5.60001 11.2771 5.66923 11.0945 5.79817L9.86032 6.67003C9.69708 6.78534 9.60001 6.97276 9.60001 7.17262C9.60001 7.67034 10.1602 7.96213 10.568 7.67687L11.242 7.20547H11.284V12.842C11.284 13.2606 11.6234 13.6 12.042 13.6C12.4606 13.6 12.8 13.2606 12.8 12.842V6.68149Z" fill="#FF6B6C"/>
<path fill-rule="evenodd" clip-rule="evenodd" d="M12.9798 1.25924C12.4029 0.812309 11.5968 0.812308 11.0199 1.25924L9.59489 2.36332L7.79306 2.30771C7.06368 2.2852 6.41147 2.75905 6.20749 3.4597L5.70358 5.19052L4.21319 6.20462C3.60987 6.61513 3.36075 7.38184 3.60755 8.06857L4.21723 9.76503L3.60755 11.4615C3.36075 12.1482 3.60987 12.9149 4.21318 13.3254L5.70358 14.3395L6.4015 16.7367C6.49127 17.0451 6.77832 17.2537 7.09934 17.2438L5.953 21.8291C5.81056 22.3989 6.31012 22.9228 6.88601 22.8076L11.9999 21.7848L17.1136 22.8076C17.6895 22.9228 18.189 22.3989 18.0466 21.8291L16.9003 17.2438C17.2213 17.2537 17.5084 17.0451 17.5982 16.7366L18.2961 14.3395L19.7865 13.3254C20.3898 12.9149 20.639 12.1482 20.3922 11.4615L19.7825 9.76503L20.3922 8.06857C20.639 7.38184 20.3898 6.61513 19.7865 6.20462L18.2961 5.19052L17.7922 3.4597C17.5882 2.75905 16.936 2.2852 16.2066 2.30771L14.4048 2.36332L12.9798 1.25924ZM8.35319 20.4745L9.17692 17.1796L9.59489 17.1667L11.0199 18.2708C11.5968 18.7177 12.4029 18.7177 12.9798 18.2708L14.4048 17.1667L14.8227 17.1796L15.6464 20.4745L11.9999 19.7452L8.35319 20.4745ZM16.5768 13.0904L15.9586 15.2137L13.7481 15.1455L11.9999 16.5L10.2516 15.1455L8.04113 15.2137L7.42293 13.0904L5.59451 11.8463L6.34247 9.76503L5.59451 7.68381L7.42293 6.4397L8.04113 4.31632L10.2516 4.38454L11.9999 3.03005L13.7481 4.38454L15.9586 4.31632L16.5768 6.4397L18.4052 7.6838L17.6572 9.76503L18.4052 11.8463L16.5768 13.0904Z" fill="#FF6B6C"/>
</g>
</g>
</svg>
