<svg width="24" height="24" viewBox="0 0 24 24" fill="none" xmlns="http://www.w3.org/2000/svg">
<g id="wallet">
<g id="Vector">
<path fill-rule="evenodd" clip-rule="evenodd" d="M1 4C1 2.89543 1.89543 2 3 2H16C17.1046 2 18 2.89543 18 4V6H21C22.1046 6 23 6.89543 23 8V20C23 21.1046 22.1046 22 21 22H3C1.89543 22 1 21.1046 1 20V4ZM3 8V20H21V17H19C17.8954 17 17 16.1046 17 15V13C17 11.8954 17.8954 11 19 11H21V8H3ZM21 13H19V15H21V13ZM3 6V4H16V6H3Z" fill="#5B5F97"/>
<path d="M21 13V11H19C17.8954 11 17 11.8954 17 13V15C17 16.1046 17.8954 17 19 17H21V15H19V13H21Z" fill="#FF6B6C"/>
</g>
</g>
</svg>
