<svg width="24" height="24" viewBox="0 0 24 24" fill="none" xmlns="http://www.w3.org/2000/svg">
<g id="distribute-spacing-vertical">
<g id="Icon">
<path d="M1 4C1 3.44772 1.44772 3 2 3H22C22.5523 3 23 3.44772 23 4C23 4.55228 22.5523 5 22 5H2C1.44772 5 1 4.55228 1 4Z" fill="#5B5F97"/>
<path fill-rule="evenodd" clip-rule="evenodd" d="M5 10C5 8.89543 5.89543 8 7 8H17C18.1046 8 19 8.89543 19 10V14C19 15.1046 18.1046 16 17 16H7C5.89543 16 5 15.1046 5 14V10ZM7 10V14H17V10H7Z" fill="#FF6B6C"/>
<path d="M1 20C1 19.4477 1.44772 19 2 19H22C22.5523 19 23 19.4477 23 20C23 20.5523 22.5523 21 22 21H2C1.44772 21 1 20.5523 1 20Z" fill="#5B5F97"/>
</g>
</g>
</svg>
