<svg width="24" height="24" viewBox="0 0 24 24" fill="none" xmlns="http://www.w3.org/2000/svg">
<g id="award3">
<g id="Union">
<path d="M10.1526 14.1072C10.57 14.3024 11.0459 14.4 11.5803 14.4C12.129 14.4 12.6156 14.3011 13.0402 14.1034C13.4648 13.9057 13.7976 13.6345 14.0386 13.2897C14.2819 12.945 14.4024 12.5508 14.4 12.1072C14.4024 11.6231 14.2616 11.22 13.9777 10.8981C13.6962 10.5736 13.2859 10.3747 12.7468 10.3011V10.2403C13.1571 10.1617 13.4899 9.97668 13.7451 9.68517C14.0028 9.39367 14.1304 9.02991 14.128 8.59392C14.1304 8.18327 14.0254 7.81318 13.8131 7.48365C13.6032 7.15159 13.3086 6.88796 12.9293 6.69278C12.55 6.49759 12.1075 6.4 11.6018 6.4C11.1008 6.4 10.6511 6.49759 10.2528 6.69278C9.85678 6.88543 9.54189 7.15285 9.30811 7.49506C9.21383 7.63308 9.13797 7.77975 9.08055 7.93508C8.93534 8.32787 9.28977 8.68137 9.70855 8.68137H9.87987C10.1878 8.68137 10.4209 8.41488 10.5999 8.16426C10.7048 8.01724 10.8444 7.90444 11.0185 7.82586C11.1927 7.74474 11.3847 7.70419 11.5946 7.70419C11.8022 7.70419 11.9835 7.74601 12.1385 7.82966C12.296 7.91331 12.4176 8.02991 12.5035 8.17947C12.5918 8.32649 12.6359 8.4976 12.6359 8.69278C12.6359 8.8981 12.5858 9.07808 12.4856 9.2327C12.3854 9.38479 12.2447 9.50393 12.0634 9.59012C11.8845 9.6763 11.6781 9.71939 11.4443 9.71939H11.3654C11.0316 9.71939 10.7609 9.99007 10.7609 10.324C10.7609 10.6578 11.0316 10.9285 11.3654 10.9285H11.4443C11.721 10.9285 11.9596 10.9741 12.16 11.0654C12.3627 11.1567 12.5178 11.2834 12.6252 11.4456C12.7349 11.6053 12.7898 11.7891 12.7898 11.997C12.7898 12.2023 12.7385 12.3835 12.6359 12.5407C12.5333 12.6978 12.3914 12.8208 12.2101 12.9095C12.0288 12.9982 11.82 13.0426 11.5839 13.0426C11.3573 13.0426 11.1533 13.0033 10.972 12.9247C10.7907 12.8461 10.6452 12.7359 10.5355 12.5939C10.3552 12.3512 10.1228 12.092 9.82045 12.092H9.60577C9.16283 12.092 8.7872 12.4671 8.94867 12.8796C9.00564 13.0251 9.07893 13.1631 9.16856 13.2935C9.4095 13.6383 9.7375 13.9095 10.1526 14.1072Z" fill="#FFFFFB"/>
<path fill-rule="evenodd" clip-rule="evenodd" d="M12.9799 1.25923C12.4031 0.812293 11.5969 0.812293 11.0201 1.25923L9.59505 2.3633L7.79322 2.30769C7.06384 2.28518 6.41163 2.75904 6.20765 3.45968L5.70374 5.1905L4.21334 6.2046C3.61003 6.61511 3.36091 7.38183 3.60771 8.06856L4.21739 9.76501L3.60771 11.4615C3.36091 12.1482 3.61003 12.9149 4.21334 13.3254L5.70374 14.3395L6.40166 16.7367C6.49143 17.0451 6.77848 17.2537 7.0995 17.2437L5.95316 21.8291C5.81072 22.3988 6.31028 22.9228 6.88617 22.8076L12 21.7848L17.1137 22.8076C17.6896 22.9228 18.1892 22.3988 18.0468 21.8291L16.9004 17.2437C17.2215 17.2536 17.5086 17.0451 17.5984 16.7366L18.2963 14.3395L19.7867 13.3254C20.39 12.9149 20.6391 12.1482 20.3923 11.4615L19.7826 9.76501L20.3923 8.06856C20.6391 7.38183 20.39 6.61511 19.7867 6.2046L18.2963 5.1905L17.7924 3.45968C17.5884 2.75904 16.9362 2.28518 16.2068 2.30769L14.405 2.3633L12.9799 1.25923ZM8.35335 20.4745L9.17708 17.1796L9.59505 17.1667L11.0201 18.2708C11.5969 18.7177 12.4031 18.7177 12.9799 18.2708L14.405 17.1667L14.8228 17.1796L15.6466 20.4745L12 19.7452L8.35335 20.4745ZM16.5769 13.0903L15.9587 15.2137L13.7482 15.1455L12 16.5L10.2518 15.1455L8.04129 15.2137L7.42309 13.0903L5.59466 11.8462L6.34263 9.76501L5.59466 7.68379L7.42309 6.43969L8.04129 4.3163L10.2518 4.38452L12 3.03004L13.7482 4.38452L15.9587 4.3163L16.5769 6.43969L18.4054 7.68379L17.6574 9.76501L18.4054 11.8462L16.5769 13.0903Z" fill="#FFFFFB"/>
</g>
</g>
</svg>
