<svg width="164" height="117" viewBox="0 0 164 117" fill="none" xmlns="http://www.w3.org/2000/svg">
<g id="clipboard-text" clip-path="url(#clip0_36_1022)">
<g id="Icon" filter="url(#filter0_b_36_1022)">
<path d="M69.0712 112.456C68.0706 108.721 70.2867 104.883 74.0209 103.882L94.3054 98.4472C98.0396 97.4466 101.878 99.6627 102.879 103.397C103.879 107.131 101.663 110.97 97.9288 111.97L77.6444 117.405C73.9101 118.406 70.0718 116.19 69.0712 112.456Z" fill="#FFFFFB" fill-opacity="0.2"/>
<path d="M76.3181 139.502C75.3175 135.767 77.5336 131.929 81.2679 130.928L135.36 116.434C139.094 115.434 142.932 117.65 143.933 121.384C144.934 125.118 142.717 128.957 138.983 129.957L84.8913 144.451C81.1571 145.452 77.3187 143.236 76.3181 139.502Z" fill="#FFFFFB" fill-opacity="0.2"/>
<path fill-rule="evenodd" clip-rule="evenodd" d="M56.9649 40.2284C58.8214 37.0128 61.8793 34.6665 65.4658 33.7054L100.433 24.3359C104.02 23.3749 107.841 23.878 111.057 25.7345L117.119 29.2345C118.727 30.1628 119.9 31.6917 120.38 33.485L133.903 29.8615C141.372 27.8603 149.049 32.2925 151.05 39.761L180.038 147.945C182.039 155.413 177.607 163.09 170.138 165.091L75.4773 190.455C68.0088 192.457 60.332 188.024 58.3309 180.556L29.3431 72.3722C27.3419 64.9037 31.7741 57.227 39.2426 55.2258L52.7656 51.6023C52.2851 49.8091 52.5366 47.8984 53.4649 46.2906L56.9649 40.2284ZM56.389 65.1253L42.8661 68.7488L71.8538 176.932L166.515 151.568L137.527 43.3845L124.004 47.008C126.005 54.4765 121.573 62.1532 114.104 64.1544L73.5355 75.0248C66.0669 77.026 58.3902 72.5938 56.389 65.1253ZM107.608 39.9092L104.057 37.8589L69.0892 47.2284L67.039 50.7796L69.912 61.5018L110.481 50.6314L107.608 39.9092Z" fill="#FFFFFB" fill-opacity="0.2"/>
</g>
</g>
<defs>
<filter id="filter0_b_36_1022" x="-11.1375" y="-16.1411" width="231.656" height="247.077" filterUnits="userSpaceOnUse" color-interpolation-filters="sRGB">
<feFlood flood-opacity="0" result="BackgroundImageFix"/>
<feGaussianBlur in="BackgroundImageFix" stdDeviation="20"/>
<feComposite in2="SourceAlpha" operator="in" result="effect1_backgroundBlur_36_1022"/>
<feBlend mode="normal" in="SourceGraphic" in2="effect1_backgroundBlur_36_1022" result="shape"/>
</filter>
<clipPath id="clip0_36_1022">
<rect width="168" height="168" fill="white" transform="translate(0 44) rotate(-15)"/>
</clipPath>
</defs>
</svg>
