<svg width="342" height="140" viewBox="0 0 342 140" fill="none" xmlns="http://www.w3.org/2000/svg">
<path d="M326 0H16C7.16344 0 0 7.16344 0 16V124C0 132.837 7.16344 140 16 140H326C334.837 140 342 132.837 342 124V16C342 7.16344 334.837 0 326 0Z" fill="#FEEFDD"/>
<g filter="url(#filter0_f_1314_1874)">
<path d="M195 151C259.065 151 311 99.065 311 35C311 -29.065 259.065 -81 195 -81C130.935 -81 79 -29.065 79 35C79 99.065 130.935 151 195 151Z" fill="#FF6B6C"/>
</g>
<g filter="url(#filter1_f_1314_1874)">
<path d="M37.5 91C84.7203 91 123 52.7203 123 5.5C123 -41.7203 84.7203 -80 37.5 -80C-9.72034 -80 -48 -41.7203 -48 5.5C-48 52.7203 -9.72034 91 37.5 91Z" fill="#FFC145"/>
</g>
<mask id="mask0_1314_1874" style="mask-type:luminance" maskUnits="userSpaceOnUse" x="178" y="-47" width="206" height="207">
<path d="M340.276 -46.4816L178 -3L221.482 159.276L383.757 115.794L340.276 -46.4816Z" fill="white"/>
</mask>
<g mask="url(#mask0_1314_1874)">
<path d="M262.406 68.594C261.405 64.8594 263.621 61.021 267.356 60.0204L294.402 52.7735C298.136 51.7729 301.974 53.989 302.975 57.7233C303.975 61.4575 301.759 65.2959 298.025 66.2965L270.979 73.543C267.245 74.544 263.406 72.328 262.406 68.594Z" fill="#FFFFFB" fill-opacity="0.2"/>
<path fill-rule="evenodd" clip-rule="evenodd" d="M192.008 22.2342C190.007 14.7657 194.439 7.089 201.908 5.0878L323.615 -27.5234C331.083 -29.5246 338.76 -25.0925 340.761 -17.6239L348.008 9.422C350.009 16.8905 345.577 24.5672 338.108 26.5684L356.226 94.183C358.227 101.652 353.795 109.328 346.326 111.33L251.666 136.694C244.197 138.695 236.52 134.263 234.519 126.794L216.402 59.1796C208.933 61.1808 201.257 56.7487 199.255 49.2801L192.008 22.2342ZM212.778 45.6567L334.485 13.0455L327.238 -14.0005L205.531 18.6107L212.778 45.6567ZM324.585 30.1919L229.925 55.5562L248.042 123.171L342.703 97.807L324.585 30.1919Z" fill="#FFFFFB" fill-opacity="0.2"/>
</g>
<defs>
<filter id="filter0_f_1314_1874" x="-11" y="-171" width="412" height="412" filterUnits="userSpaceOnUse" color-interpolation-filters="sRGB">
<feFlood flood-opacity="0" result="BackgroundImageFix"/>
<feBlend mode="normal" in="SourceGraphic" in2="BackgroundImageFix" result="shape"/>
<feGaussianBlur stdDeviation="45" result="effect1_foregroundBlur_1314_1874"/>
</filter>
<filter id="filter1_f_1314_1874" x="-148" y="-180" width="371" height="371" filterUnits="userSpaceOnUse" color-interpolation-filters="sRGB">
<feFlood flood-opacity="0" result="BackgroundImageFix"/>
<feBlend mode="normal" in="SourceGraphic" in2="BackgroundImageFix" result="shape"/>
<feGaussianBlur stdDeviation="50" result="effect1_foregroundBlur_1314_1874"/>
</filter>
</defs>
</svg>
