<svg width="342" height="140" viewBox="0 0 342 140" fill="none" xmlns="http://www.w3.org/2000/svg">
<path d="M326 0H16C7.16344 0 0 7.16344 0 16V124C0 132.837 7.16344 140 16 140H326C334.837 140 342 132.837 342 124V16C342 7.16344 334.837 0 326 0Z" fill="#FEEFDD"/>
<g filter="url(#filter0_f_1287_2111)">
<path d="M195 151C259.065 151 311 99.065 311 35C311 -29.065 259.065 -81 195 -81C130.935 -81 79 -29.065 79 35C79 99.065 130.935 151 195 151Z" fill="#FF6B6C"/>
</g>
<g filter="url(#filter1_f_1287_2111)">
<path d="M37.5 91C84.7203 91 123 52.7203 123 5.5C123 -41.7203 84.7203 -80 37.5 -80C-9.72034 -80 -48 -41.7203 -48 5.5C-48 52.7203 -9.72034 91 37.5 91Z" fill="#FFC145"/>
</g>
<mask id="mask0_1287_2111" style="mask-type:luminance" maskUnits="userSpaceOnUse" x="178" y="-47" width="206" height="207">
<path d="M340.397 -46.4816L178.121 -3L221.603 159.276L383.878 115.794L340.397 -46.4816Z" fill="white"/>
</mask>
<g mask="url(#mask0_1287_2111)">
<path fill-rule="evenodd" clip-rule="evenodd" d="M300.651 -21.3373C304.517 -28.0336 313.079 -30.328 319.775 -26.462L333.37 -18.6129C340.067 -14.7468 342.361 -6.1844 338.495 0.511799L259.297 137.677C257.441 140.892 254.383 143.239 250.796 144.2L233.318 148.883C229.584 149.884 225.745 147.668 224.745 143.933L220.062 126.456C219.101 122.869 219.604 119.048 221.46 115.832L300.651 -21.3373ZM295.452 15.669L233.585 122.832L236.456 133.548L247.173 130.677L309.045 23.5172L295.452 15.669ZM316.046 11.3931L302.452 3.5445L312.775 -14.3376L326.37 -6.4886L316.046 11.3931Z" fill="#FFFFFB" fill-opacity="0.2"/>
<path d="M373.492 104.083C374.493 107.818 372.277 111.656 368.542 112.656L300.927 130.774C297.193 131.774 293.355 129.558 292.354 125.824C291.354 122.09 293.57 118.251 297.304 117.251L364.919 99.133C368.653 98.133 372.491 100.349 373.492 104.083Z" fill="#FFFFFB" fill-opacity="0.2"/>
</g>
<defs>
<filter id="filter0_f_1287_2111" x="-11" y="-171" width="412" height="412" filterUnits="userSpaceOnUse" color-interpolation-filters="sRGB">
<feFlood flood-opacity="0" result="BackgroundImageFix"/>
<feBlend mode="normal" in="SourceGraphic" in2="BackgroundImageFix" result="shape"/>
<feGaussianBlur stdDeviation="45" result="effect1_foregroundBlur_1287_2111"/>
</filter>
<filter id="filter1_f_1287_2111" x="-148" y="-180" width="371" height="371" filterUnits="userSpaceOnUse" color-interpolation-filters="sRGB">
<feFlood flood-opacity="0" result="BackgroundImageFix"/>
<feBlend mode="normal" in="SourceGraphic" in2="BackgroundImageFix" result="shape"/>
<feGaussianBlur stdDeviation="50" result="effect1_foregroundBlur_1287_2111"/>
</filter>
</defs>
</svg>
