<svg width="24" height="24" viewBox="0 0 24 24" fill="none" xmlns="http://www.w3.org/2000/svg">
<g id="award2">
<g id="Union">
<path d="M9.67567 12.7601C9.67567 13.224 10.0517 13.6 10.5156 13.6H14.5179C14.8946 13.6 15.2 13.2946 15.2 12.9179C15.2 12.5412 14.8946 12.2358 14.5179 12.2358H11.9459V12.1819L13.0773 11.0528C13.6095 10.5595 14.022 10.1369 14.3146 9.78498C14.6072 9.43045 14.8103 9.10803 14.9238 8.81773C15.0398 8.52743 15.0978 8.23327 15.0978 7.93526C15.0978 7.48054 14.9831 7.0772 14.7535 6.72524C14.524 6.37328 14.2023 6.0984 13.7886 5.90058C13.3775 5.7002 12.8944 5.6 12.3395 5.6C11.7996 5.6 11.3229 5.70405 10.9092 5.91214C10.4955 6.12023 10.1739 6.41439 9.94432 6.79461C9.83735 6.97179 9.7553 7.16376 9.69818 7.37052C9.58382 7.78445 9.94812 8.1395 10.3776 8.1395H10.4816C10.8536 8.1395 11.1259 7.81753 11.2989 7.48825C11.3948 7.30585 11.531 7.16583 11.7076 7.06821C11.8841 6.97059 12.091 6.92178 12.3281 6.92178C12.5551 6.92178 12.7582 6.96802 12.9373 7.0605C13.1164 7.15042 13.2577 7.28016 13.3611 7.44971C13.4645 7.6167 13.5162 7.8158 13.5162 8.04702C13.5162 8.25511 13.4746 8.44907 13.3913 8.62891C13.3081 8.80617 13.1858 8.98729 13.0243 9.17226C12.8654 9.35723 12.6686 9.56532 12.434 9.79653L9.93934 12.149C9.77106 12.3077 9.67567 12.5288 9.67567 12.7601Z" fill="#FFC145"/>
<path fill-rule="evenodd" clip-rule="evenodd" d="M11.0201 1.25923C11.5969 0.812293 12.4031 0.812293 12.9799 1.25923L14.405 2.3633L16.2068 2.30769C16.9362 2.28518 17.5884 2.75904 17.7924 3.45968L18.2963 5.1905L19.7867 6.2046C20.39 6.61511 20.6391 7.38183 20.3923 8.06856L19.7826 9.76501L20.3923 11.4615C20.6391 12.1482 20.39 12.9149 19.7867 13.3254L18.2963 14.3395L17.5984 16.7366C17.5086 17.0451 17.2215 17.2536 16.9004 17.2437L18.0467 21.8291C18.1892 22.3988 17.6896 22.9228 17.1137 22.8076L12 21.7848L6.88616 22.8076C6.31028 22.9228 5.81072 22.3988 5.95316 21.8291L7.09949 17.2437C6.77848 17.2537 6.49143 17.0451 6.40165 16.7367L5.70373 14.3395L4.21334 13.3254C3.61002 12.9149 3.3609 12.1482 3.6077 11.4615L4.21738 9.76501L3.6077 8.06856C3.3609 7.38183 3.61002 6.61511 4.21334 6.2046L5.70373 5.1905L6.20764 3.45968C6.41162 2.75904 7.06383 2.28518 7.79322 2.30769L9.59504 2.3633L11.0201 1.25923ZM9.17707 17.1796L8.35335 20.4745L12 19.7452L15.6466 20.4745L14.8228 17.1796L14.405 17.1667L12.9799 18.2708C12.4031 18.7177 11.5969 18.7177 11.0201 18.2708L9.59504 17.1667L9.17707 17.1796ZM15.9587 15.2137L16.5769 13.0903L18.4053 11.8462L17.6574 9.76501L18.4053 7.68379L16.5769 6.43969L15.9587 4.3163L13.7482 4.38452L12 3.03004L10.2518 4.38452L8.04128 4.3163L7.42309 6.43969L5.59466 7.68379L6.34262 9.76501L5.59466 11.8462L7.42309 13.0903L8.04128 15.2137L10.2518 15.1455L12 16.5L13.7482 15.1455L15.9587 15.2137Z" fill="#FFC145"/>
</g>
</g>
</svg>
