<svg width="40" height="40" viewBox="0 0 40 40" fill="none" xmlns="http://www.w3.org/2000/svg">
<path d="M36.1953 30.3981L31.0094 5.74184C30.9423 5.4194 30.8122 5.1134 30.6265 4.8414C30.4408 4.5694 30.2032 4.33678 29.9273 4.15688C29.6515 3.97699 29.3428 3.85338 29.019 3.79314C28.6952 3.73291 28.3627 3.73725 28.0406 3.8059L20.7266 5.37777C20.0796 5.51943 19.5148 5.9108 19.1548 6.46675C18.7949 7.0227 18.6691 7.69827 18.8047 8.34652L23.9906 33.0028C24.1062 33.5653 24.4119 34.0709 24.8564 34.4346C25.3009 34.7982 25.857 34.9978 26.4313 34.9996C26.6088 34.9994 26.7858 34.9806 26.9594 34.9434L34.2734 33.3715C34.9212 33.2295 35.4866 32.8374 35.8465 32.2805C36.2065 31.7236 36.3319 31.047 36.1953 30.3981ZM21.25 7.83559V7.82152L28.5625 6.25902L29.0828 8.73871L21.7703 10.3121L21.25 7.83559ZM22.8125 15.2387L22.2891 12.7543L29.6047 11.1825L30.1266 13.6668L22.8125 15.2387ZM33.75 30.9278L26.4375 32.4903L25.9172 30.0106L33.2297 28.4371L33.75 30.9137V30.9278ZM16.25 4.99965H8.75C8.08696 4.99965 7.45107 5.26304 6.98223 5.73188C6.51339 6.20072 6.25 6.83661 6.25 7.49965V32.4996C6.25 33.1627 6.51339 33.7986 6.98223 34.2674C7.45107 34.7363 8.08696 34.9996 8.75 34.9996H16.25C16.913 34.9996 17.5489 34.7363 18.0178 34.2674C18.4866 33.7986 18.75 33.1627 18.75 32.4996V7.49965C18.75 6.83661 18.4866 6.20072 18.0178 5.73188C17.5489 5.26304 16.913 4.99965 16.25 4.99965ZM8.75 7.49965H16.25V9.99965H8.75V7.49965ZM16.25 32.4996H8.75V29.9996H16.25V32.4996Z" fill="#292F36"/>
</svg>
