<svg id="Layer_2" height="512" viewBox="0 0 512 512" width="512" xmlns="http://www.w3.org/2000/svg" data-name="Layer 2"><g id="Icon"><g id="_133" data-name="133"><rect id="Background" fill="#2492ff" height="512" rx="150" transform="matrix(-1 0 0 -1 512 512)" width="512"/><g fill="#fff"><path d="m173.47 268.78 82.53-82.53 82.53 82.53c9.76 9.76 25.59 9.76 35.36 0 9.76-9.76 9.76-25.59 0-35.36l-100.21-100.21c-9.76-9.76-25.59-9.76-35.36 0l-100.21 100.21c-9.76 9.76-9.76 25.59 0 35.36 9.76 9.76 25.59 9.76 35.36 0z"/><path d="m138.11 343.43 100.21-100.21c9.76-9.76 25.59-9.76 35.36 0l100.21 100.21c9.76 9.76 9.76 25.59 0 35.36-9.76 9.76-25.59 9.76-35.36 0l-82.53-82.53-82.53 82.53c-9.76 9.76-25.59 9.76-35.36 0-9.76-9.76-9.76-25.59 0-35.36z"/></g></g></g></svg>